<svg xmlns="http://www.w3.org/2000/svg" xmlns:xlink="http://www.w3.org/1999/xlink" viewBox="0 0 553.84 879.34"><defs><style>.cls-1{fill:url(#linear-gradient);}.cls-2{fill:url(#linear-gradient-2);}.cls-3{fill:url(#linear-gradient-3);}.cls-4{fill:url(#linear-gradient-4);}.cls-5{fill:url(#linear-gradient-5);}.cls-6{fill:url(#linear-gradient-6);}.cls-7{fill:url(#linear-gradient-7);}.cls-8{fill:url(#linear-gradient-8);}.cls-9{fill:url(#linear-gradient-9);}.cls-10{fill:url(#linear-gradient-10);}.cls-11{fill:url(#linear-gradient-11);}.cls-12{fill:url(#linear-gradient-12);}.cls-13{fill:url(#linear-gradient-13);}.cls-14{fill:url(#linear-gradient-14);}.cls-15{fill:url(#linear-gradient-15);}.cls-16{fill:url(#linear-gradient-16);}.cls-17{fill:url(#linear-gradient-17);}.cls-18{fill:url(#linear-gradient-18);}.cls-19{fill:url(#linear-gradient-19);}.cls-20{fill:url(#linear-gradient-20);}.cls-21{fill:url(#linear-gradient-21);}.cls-22{fill:url(#linear-gradient-22);}.cls-23{fill:url(#linear-gradient-23);}.cls-24{fill:url(#linear-gradient-24);}.cls-25{fill:url(#linear-gradient-25);}.cls-26{fill:url(#linear-gradient-26);}</style><linearGradient id="linear-gradient" x1="484.61" y1="106.59" x2="484.61" y2="452.99" gradientUnits="userSpaceOnUse"><stop offset="0" stop-color="#e3b591"/><stop offset="1" stop-color="#bbd0a2"/></linearGradient><linearGradient id="linear-gradient-2" x1="507.68" y1="79.94" x2="507.68" y2="133.23" gradientUnits="userSpaceOnUse"><stop offset="0" stop-color="#fae4d4"/><stop offset="1" stop-color="#e0f3e7"/></linearGradient><linearGradient id="linear-gradient-3" x1="484.61" y1="666.17" x2="484.61" y2="799.4" gradientUnits="userSpaceOnUse"><stop offset="0" stop-color="#99a4d1"/><stop offset="1" stop-color="#39999f"/></linearGradient><linearGradient id="linear-gradient-4" x1="161.54" y1="26.65" x2="161.54" y2="106.59" xlink:href="#linear-gradient"/><linearGradient id="linear-gradient-5" x1="461.53" y1="373.05" x2="461.53" y2="426.35" xlink:href="#linear-gradient-2"/><linearGradient id="linear-gradient-6" x1="438.45" y1="399.7" x2="438.45" y2="532.93" xlink:href="#linear-gradient"/><linearGradient id="linear-gradient-7" x1="276.92" y1="373.05" x2="276.92" y2="426.34" xlink:href="#linear-gradient-2"/><linearGradient id="linear-gradient-8" x1="299.99" y1="399.7" x2="299.99" y2="479.64" xlink:href="#linear-gradient-3"/><linearGradient id="linear-gradient-9" x1="253.84" y1="399.7" x2="253.84" y2="479.64" xlink:href="#linear-gradient"/><linearGradient id="linear-gradient-10" x1="377.13" y1="13.32" x2="377.13" y2="66.62" xlink:href="#linear-gradient-2"/><linearGradient id="linear-gradient-11" x1="400.21" y1="39.97" x2="400.21" y2="119.91" xlink:href="#linear-gradient-3"/><linearGradient id="linear-gradient-12" x1="354.05" y1="39.97" x2="354.05" y2="119.91" xlink:href="#linear-gradient"/><linearGradient id="linear-gradient-13" x1="115.38" y1="266.47" x2="115.38" y2="319.76" xlink:href="#linear-gradient-2"/><linearGradient id="linear-gradient-14" x1="323.07" y1="772.75" x2="323.07" y2="826.05" xlink:href="#linear-gradient-2"/><linearGradient id="linear-gradient-15" x1="23.08" y1="399.7" x2="23.08" y2="159.88" gradientUnits="userSpaceOnUse"><stop offset="0" stop-color="#bbd0a2"/><stop offset="1" stop-color="#e3b591"/></linearGradient><linearGradient id="linear-gradient-16" x1="161.54" y1="53.29" x2="161.54" y2="399.7" xlink:href="#linear-gradient-3"/><linearGradient id="linear-gradient-17" x1="138.46" y1="0" x2="138.46" y2="186.53" xlink:href="#linear-gradient-2"/><linearGradient id="linear-gradient-18" x1="115.38" y1="479.64" x2="115.38" y2="719.46" xlink:href="#linear-gradient"/><linearGradient id="linear-gradient-19" x1="115.38" y1="452.99" x2="115.38" y2="532.93" xlink:href="#linear-gradient-2"/><linearGradient id="linear-gradient-20" x1="184.61" y1="479.64" x2="184.61" y2="719.46" xlink:href="#linear-gradient-3"/><linearGradient id="linear-gradient-21" x1="69.23" y1="506.29" x2="69.23" y2="586.23" xlink:href="#linear-gradient"/><linearGradient id="linear-gradient-22" x1="346.15" y1="506.29" x2="346.15" y2="692.81" xlink:href="#linear-gradient-2"/><linearGradient id="linear-gradient-23" x1="369.23" y1="586.23" x2="369.23" y2="879.34" xlink:href="#linear-gradient"/><linearGradient id="linear-gradient-24" x1="461.53" y1="106.59" x2="461.53" y2="612.87" xlink:href="#linear-gradient-3"/><linearGradient id="linear-gradient-25" x1="369.23" y1="213.17" x2="369.23" y2="319.76" xlink:href="#linear-gradient-2"/><linearGradient id="linear-gradient-26" x1="277.41" y1="133.23" x2="277.41" y2="373.05" xlink:href="#linear-gradient"/></defs><title>Front4Asset 21</title><g id="Layer_2" data-name="Layer 2"><g id="Poster_2" data-name="Poster 2"><polygon class="cls-1" points="461.53 106.59 461.53 426.35 507.68 452.99 507.68 133.24 461.53 106.59"/><polygon class="cls-2" points="507.68 133.24 553.84 106.59 507.68 79.94 461.53 106.59 507.68 133.24"/><polygon class="cls-3" points="461.53 799.4 507.69 772.75 507.69 666.16 461.53 692.81 461.53 799.4"/><polygon class="cls-4" points="184.61 53.29 138.46 26.65 138.46 79.94 184.61 106.59 184.61 53.29"/><polygon class="cls-5" points="415.38 399.7 461.53 426.35 507.68 399.7 461.53 373.05 415.38 399.7"/><polygon class="cls-6" points="461.53 426.35 415.38 399.7 415.38 506.29 461.53 532.93 461.53 426.35"/><polygon class="cls-7" points="230.76 399.7 276.92 426.34 323.07 399.7 276.92 373.05 230.76 399.7"/><polygon class="cls-8" points="276.92 479.64 323.07 452.99 323.07 399.7 276.92 426.34 276.92 479.64"/><polygon class="cls-9" points="276.92 426.34 230.76 399.7 230.76 452.99 276.92 479.64 276.92 426.34"/><polygon class="cls-10" points="330.98 39.97 377.13 66.62 423.28 39.97 377.13 13.32 330.98 39.97"/><polygon class="cls-11" points="377.13 119.91 423.28 93.27 423.28 39.97 377.13 66.62 377.13 119.91"/><polygon class="cls-12" points="377.13 66.62 330.98 39.97 330.98 93.27 377.13 119.91 377.13 66.62"/><polygon class="cls-13" points="92.31 266.47 92.31 319.76 138.46 293.12 92.31 266.47 92.31 266.47"/><polygon class="cls-14" points="276.92 799.4 323.07 826.05 369.23 799.4 323.07 772.75 276.92 799.4"/><polygon class="cls-15" points="46.15 186.53 0 159.88 0 159.88 0 159.88 0 213.17 0 373.05 46.15 399.7 46.15 239.82 46.15 186.53"/><polygon class="cls-16" points="276.92 213.18 276.92 106.59 276.92 53.29 46.15 186.53 46.15 239.82 46.15 399.7 138.46 346.41 138.46 293.12 92.31 319.76 92.31 319.76 92.31 213.17 230.77 133.23 230.77 239.82 276.92 213.18"/><polygon class="cls-17" points="0 159.88 46.15 186.53 92.31 159.88 92.31 159.88 138.46 133.23 138.46 133.23 198.88 98.35 198.88 98.35 230.77 79.94 276.92 53.29 184.61 0 138.46 26.65 184.61 53.29 0 159.88"/><polygon class="cls-18" points="92.31 479.64 138.46 506.29 138.46 719.46 92.31 692.81 92.31 479.64"/><polygon class="cls-19" points="138.46 452.99 92.31 479.64 92.31 479.64 92.31 479.64 46.15 506.29 92.31 532.93 184.61 479.64 138.46 452.99"/><polygon class="cls-20" points="276.92 639.52 276.92 586.23 184.61 639.52 184.61 479.64 138.46 506.29 138.46 506.29 92.31 532.93 92.31 586.23 138.46 559.58 138.46 719.46 276.92 639.52"/><polygon class="cls-21" points="92.31 532.93 46.15 506.29 46.15 559.58 92.31 586.23 92.31 532.93"/><polygon class="cls-22" points="507.69 666.16 461.53 639.52 461.53 639.52 369.22 586.23 461.53 532.93 415.38 506.29 323.07 559.58 276.92 532.93 230.77 559.58 230.77 559.58 184.61 586.23 184.61 639.52 276.92 586.23 276.92 586.23 276.92 586.23 276.92 586.23 276.92 586.23 303.15 601.37 461.53 692.81 507.69 666.16"/><polygon class="cls-23" points="276.92 586.23 276.92 639.52 415.38 719.46 415.38 772.75 323.07 826.05 276.92 799.4 276.92 852.69 323.07 879.34 323.07 879.34 461.53 799.4 461.53 799.4 461.53 746.11 461.53 746.11 461.53 746.11 461.53 692.81 276.92 586.23"/><polygon class="cls-24" points="507.68 133.24 507.68 239.82 369.22 319.76 369.22 373.06 507.68 293.12 507.68 399.7 461.53 426.35 461.53 479.64 461.53 532.93 369.22 586.23 415.38 612.87 507.69 559.58 507.69 452.99 553.84 426.35 553.84 266.47 553.84 213.18 553.84 106.59 507.68 133.24"/><polygon class="cls-25" points="461.53 213.18 369.23 266.47 276.92 213.18 230.77 239.82 323.07 293.12 323.07 293.12 369.22 319.76 507.68 239.82 461.53 213.18"/><polygon class="cls-26" points="370.2 319.2 276.92 266.47 230.77 239.82 230.77 239.82 230.77 133.23 184.61 159.88 184.61 266.47 369.22 373.06 370.2 319.2"/></g></g></svg>