<svg xmlns="http://www.w3.org/2000/svg" xmlns:xlink="http://www.w3.org/1999/xlink" viewBox="0 0 369.23 506.29"><defs><style>.cls-1{fill:url(#linear-gradient);}.cls-2{fill:url(#linear-gradient-2);}.cls-3{fill:url(#linear-gradient-3);}.cls-4{fill:url(#linear-gradient-4);}.cls-5{fill:url(#linear-gradient-5);}.cls-6{fill:url(#linear-gradient-6);}.cls-7{fill:url(#linear-gradient-7);}.cls-8{fill:url(#linear-gradient-8);}.cls-9{fill:url(#linear-gradient-9);}.cls-10{fill:url(#linear-gradient-10);}.cls-11{fill:url(#linear-gradient-11);}.cls-12{fill:url(#linear-gradient-12);}</style><linearGradient id="linear-gradient" x1="253.84" y1="133.23" x2="253.84" gradientUnits="userSpaceOnUse"><stop offset="0" stop-color="#f3ccd2"/><stop offset="1" stop-color="#f3e6f1"/></linearGradient><linearGradient id="linear-gradient-2" x1="230.77" y1="346.41" x2="230.77" y2="26.65" gradientUnits="userSpaceOnUse"><stop offset="0" stop-color="#aea4d1"/><stop offset="1" stop-color="#708dd1"/></linearGradient><linearGradient id="linear-gradient-3" x1="254.16" y1="372.96" x2="254.16" y2="293.02" xlink:href="#linear-gradient-2"/><linearGradient id="linear-gradient-4" x1="277.24" y1="319.67" x2="277.24" y2="266.38" xlink:href="#linear-gradient"/><linearGradient id="linear-gradient-5" x1="323.23" y1="372.96" x2="323.23" y2="106.59" gradientUnits="userSpaceOnUse"><stop offset="0" stop-color="#cbe6f9"/><stop offset="1" stop-color="#a5b5e7"/></linearGradient><linearGradient id="linear-gradient-6" x1="300" y1="506.29" x2="300" y2="426.35" xlink:href="#linear-gradient-2"/><linearGradient id="linear-gradient-7" x1="323.07" y1="452.99" x2="323.07" y2="399.7" xlink:href="#linear-gradient"/><linearGradient id="linear-gradient-8" x1="346.15" y1="506.29" x2="346.15" y2="426.35" xlink:href="#linear-gradient-5"/><linearGradient id="linear-gradient-9" x1="46.15" y1="293.11" x2="46.15" y2="239.82" xlink:href="#linear-gradient"/><linearGradient id="linear-gradient-10" x1="184.61" y1="213.17" x2="184.61" y2="159.88" xlink:href="#linear-gradient"/><linearGradient id="linear-gradient-11" x1="207.69" y1="266.47" x2="207.69" y2="186.53" xlink:href="#linear-gradient-5"/><linearGradient id="linear-gradient-12" x1="92.31" y1="346.41" x2="92.31" y2="186.53" xlink:href="#linear-gradient-2"/></defs><title>Front4Asset 4</title><g id="Layer_2" data-name="Layer 2"><g id="Poster_1" data-name="Poster 1"><polygon class="cls-1" points="138.46 26.65 323.07 133.23 369.23 106.59 184.61 0 138.46 26.65"/><polygon class="cls-2" points="323.07 186.53 323.07 133.23 276.92 106.59 276.92 106.59 138.46 26.65 138.46 79.94 276.92 159.88 276.92 319.76 323.07 346.41 323.07 186.53 323.07 186.53"/><polygon class="cls-3" points="231.09 293.02 277.24 319.67 277.24 372.96 231.09 346.32 231.09 293.02"/><polygon class="cls-4" points="231.09 293.02 277.24 266.38 323.39 293.02 277.24 319.67 231.09 293.02"/><polygon class="cls-5" points="369.23 106.59 323.07 133.23 323.07 293.21 277.24 319.67 277.24 372.96 323.39 346.32 323.39 346.22 369.23 319.76 369.23 106.59"/><polygon class="cls-6" points="276.92 426.35 323.07 452.99 323.07 506.29 276.92 479.64 276.92 426.35"/><polygon class="cls-7" points="276.92 426.35 323.07 399.7 369.23 426.35 323.07 452.99 276.92 426.35"/><polygon class="cls-8" points="323.07 452.99 369.23 426.35 369.23 479.64 323.07 506.29 323.07 452.99"/><polygon class="cls-9" points="0 266.47 46.15 239.82 92.31 266.47 46.15 293.11 0 266.47"/><polygon class="cls-10" points="138.46 186.53 184.61 159.88 230.77 186.53 184.61 213.17 138.46 186.53"/><polygon class="cls-11" points="184.61 213.17 230.77 186.53 230.77 239.82 184.61 266.47 184.61 213.17"/><polygon class="cls-12" points="184.61 266.47 184.61 266.47 184.61 266.47 184.61 266.47 184.61 213.17 138.46 186.53 138.46 239.82 138.46 239.82 46.15 293.11 0 266.47 0 319.76 0 319.76 0 319.76 0 319.76 46.15 346.41 46.15 346.41 184.61 266.47 184.61 266.47"/></g></g></svg>