<svg xmlns="http://www.w3.org/2000/svg" xmlns:xlink="http://www.w3.org/1999/xlink" viewBox="0 0 836.85 704.49"><defs><style>.cls-1{fill:none;}.cls-1,.cls-2,.cls-3,.cls-4,.cls-5,.cls-6,.cls-7,.cls-8{stroke:#fff;stroke-miterlimit:10;}.cls-2{fill:url(#linear-gradient);}.cls-3{fill:url(#linear-gradient-2);}.cls-4{fill:url(#linear-gradient-3);}.cls-5{fill:url(#linear-gradient-4);}.cls-6{fill:url(#linear-gradient-5);}.cls-7{fill:url(#linear-gradient-6);}.cls-8{fill:url(#linear-gradient-7);}</style><linearGradient id="linear-gradient" x1="513.52" y1="11.17" x2="513.52" y2="0.5" gradientUnits="userSpaceOnUse"><stop offset="0" stop-color="#f5919a"/><stop offset="1" stop-color="#e6c2f2"/></linearGradient><linearGradient id="linear-gradient-2" x1="375.34" y1="250.99" x2="375.34" y2="240.32" xlink:href="#linear-gradient"/><linearGradient id="linear-gradient-3" x1="790.44" y1="171.05" x2="790.44" y2="160.38" xlink:href="#linear-gradient"/><linearGradient id="linear-gradient-4" x1="651.98" y1="410.87" x2="651.98" y2="400.2" xlink:href="#linear-gradient"/><linearGradient id="linear-gradient-5" x1="375.06" y1="677.34" x2="375.06" y2="666.66" xlink:href="#linear-gradient"/><linearGradient id="linear-gradient-6" x1="790.44" y1="703.99" x2="790.44" y2="693.31" xlink:href="#linear-gradient"/><linearGradient id="linear-gradient-7" x1="5.84" y1="197.7" x2="5.84" y2="187.03" xlink:href="#linear-gradient"/></defs><title>Front4Asset 8</title><g id="Layer_2" data-name="Layer 2"><g id="Poster_3" data-name="Poster 3"><polyline class="cls-1" points="513.52 5.84 513.52 325.6 375.06 245.66"/><polyline class="cls-1" points="836.6 139.07 513.52 325.6 790.44 485.48 790.44 698.65"/><polyline class="cls-1" points="375.06 245.66 236.6 325.6 5.84 192.36"/><line class="cls-1" x1="375.34" y1="245.66" x2="375.06" y2="672"/><circle class="cls-2" cx="513.52" cy="5.84" r="5.34"/><circle class="cls-3" cx="375.34" cy="245.66" r="5.34"/><circle class="cls-4" cx="790.44" cy="165.72" r="5.34"/><circle class="cls-5" cx="651.98" cy="405.54" r="5.34"/><circle class="cls-6" cx="375.06" cy="672" r="5.34"/><circle class="cls-7" cx="790.44" cy="698.65" r="5.34"/><circle class="cls-8" cx="5.84" cy="192.36" r="5.34"/></g></g></svg>