<svg xmlns="http://www.w3.org/2000/svg" xmlns:xlink="http://www.w3.org/1999/xlink" viewBox="0 0 923.32 826.05"><defs><style>.cls-1{fill:url(#linear-gradient);}.cls-2{fill:url(#linear-gradient-2);}.cls-3{fill:url(#linear-gradient-3);}.cls-4{fill:url(#linear-gradient-4);}.cls-5{fill:url(#linear-gradient-5);}.cls-6{fill:url(#linear-gradient-6);}.cls-7{fill:url(#linear-gradient-7);}.cls-8{fill:url(#linear-gradient-8);}.cls-9{fill:url(#linear-gradient-9);}.cls-10{fill:url(#linear-gradient-10);}.cls-11{fill:url(#linear-gradient-11);}.cls-12{fill:url(#linear-gradient-12);}.cls-13{fill:url(#linear-gradient-13);}.cls-14{fill:url(#linear-gradient-14);}.cls-15{fill:url(#linear-gradient-15);}.cls-16{fill:url(#linear-gradient-16);}.cls-17{fill:url(#linear-gradient-17);}.cls-18{fill:url(#linear-gradient-18);}.cls-19{fill:url(#linear-gradient-19);}.cls-20{fill:url(#linear-gradient-20);}.cls-21{fill:url(#linear-gradient-21);}.cls-22{fill:url(#linear-gradient-22);}.cls-23{fill:url(#linear-gradient-23);}.cls-24{fill:url(#linear-gradient-24);}.cls-25{fill:url(#linear-gradient-25);}.cls-26{fill:url(#linear-gradient-26);}.cls-27{fill:url(#linear-gradient-27);}.cls-28{fill:url(#linear-gradient-28);}.cls-29{fill:url(#linear-gradient-29);}.cls-30{fill:url(#linear-gradient-30);}.cls-31{fill:url(#linear-gradient-31);}.cls-32{fill:none;}.cls-32,.cls-33,.cls-34,.cls-35,.cls-36,.cls-37,.cls-38,.cls-39{stroke:#fff;stroke-miterlimit:10;}.cls-33{fill:url(#linear-gradient-32);}.cls-34{fill:url(#linear-gradient-33);}.cls-35{fill:url(#linear-gradient-34);}.cls-36{fill:url(#linear-gradient-35);}.cls-37{fill:url(#linear-gradient-36);}.cls-38{fill:url(#linear-gradient-37);}.cls-39{fill:url(#linear-gradient-38);}</style><linearGradient id="linear-gradient" x1="830.76" y1="826.05" x2="830.76" y2="186.53" gradientUnits="userSpaceOnUse"><stop offset="0" stop-color="#cbe6f9"/><stop offset="1" stop-color="#a5b5e7"/></linearGradient><linearGradient id="linear-gradient-2" x1="738.45" y1="213.17" x2="738.45" y2="79.94" gradientUnits="userSpaceOnUse"><stop offset="0" stop-color="#f3ccd2"/><stop offset="1" stop-color="#f3e6f1"/></linearGradient><linearGradient id="linear-gradient-3" x1="669.22" y1="266.47" x2="669.22" y2="26.65" xlink:href="#linear-gradient"/><linearGradient id="linear-gradient-4" x1="576.92" y1="266.47" x2="576.92" y2="26.65" gradientUnits="userSpaceOnUse"><stop offset="0" stop-color="#aea4d1"/><stop offset="1" stop-color="#708dd1"/></linearGradient><linearGradient id="linear-gradient-5" x1="599.99" y1="53.29" x2="599.99" y2="0" xlink:href="#linear-gradient-2"/><linearGradient id="linear-gradient-6" x1="23.08" y1="586.23" x2="23.08" y2="506.29" xlink:href="#linear-gradient-4"/><linearGradient id="linear-gradient-7" x1="115.38" y1="532.93" x2="115.38" y2="399.7" xlink:href="#linear-gradient-2"/><linearGradient id="linear-gradient-8" x1="138.46" y1="586.23" x2="138.46" y2="426.35" xlink:href="#linear-gradient"/><linearGradient id="linear-gradient-9" x1="899.99" y1="746.1" x2="899.99" y2="666.16" xlink:href="#linear-gradient"/><linearGradient id="linear-gradient-10" x1="115.38" y1="293.11" x2="115.38" y2="159.88" xlink:href="#linear-gradient-2"/><linearGradient id="linear-gradient-11" x1="253.84" y1="133.23" x2="253.84" y2="0" xlink:href="#linear-gradient-2"/><linearGradient id="linear-gradient-12" x1="415.38" y1="293.11" x2="415.38" y2="186.53" xlink:href="#linear-gradient-2"/><linearGradient id="linear-gradient-13" x1="276.92" y1="213.17" x2="276.92" y2="26.65" xlink:href="#linear-gradient"/><linearGradient id="linear-gradient-14" x1="830.76" y1="692.81" x2="830.76" y2="586.22" xlink:href="#linear-gradient-2"/><linearGradient id="linear-gradient-15" x1="738.45" y1="826.05" x2="738.45" y2="373.05" xlink:href="#linear-gradient-4"/><linearGradient id="linear-gradient-16" x1="92.31" y1="346.41" x2="92.31" y2="106.59" xlink:href="#linear-gradient-4"/><linearGradient id="linear-gradient-17" x1="207.69" y1="346.41" x2="207.69" y2="266.47" xlink:href="#linear-gradient"/><linearGradient id="linear-gradient-18" x1="300" y1="426.35" x2="300" y2="346.41" xlink:href="#linear-gradient-4"/><linearGradient id="linear-gradient-19" x1="323.07" y1="373.05" x2="323.07" y2="319.76" xlink:href="#linear-gradient-2"/><linearGradient id="linear-gradient-20" x1="346.15" y1="426.35" x2="346.15" y2="346.41" xlink:href="#linear-gradient"/><linearGradient id="linear-gradient-21" x1="484.61" y1="746.11" x2="484.61" y2="586.23" xlink:href="#linear-gradient-4"/><linearGradient id="linear-gradient-22" x1="507.69" y1="612.87" x2="507.69" y2="559.58" xlink:href="#linear-gradient-2"/><linearGradient id="linear-gradient-23" x1="530.76" y1="746.11" x2="530.76" y2="586.23" xlink:href="#linear-gradient"/><linearGradient id="linear-gradient-24" x1="853.84" y1="586.22" x2="853.84" y2="506.28" xlink:href="#linear-gradient-4"/><linearGradient id="linear-gradient-25" x1="876.91" y1="532.93" x2="876.91" y2="479.64" xlink:href="#linear-gradient-2"/><linearGradient id="linear-gradient-26" x1="899.99" y1="586.22" x2="899.99" y2="506.28" xlink:href="#linear-gradient"/><linearGradient id="linear-gradient-27" x1="807.68" y1="373.05" x2="807.68" y2="133.23" xlink:href="#linear-gradient-4"/><linearGradient id="linear-gradient-28" x1="415.38" y1="319.76" x2="415.38" y2="319.76" xlink:href="#linear-gradient-2"/><linearGradient id="linear-gradient-29" x1="646.15" y1="452.99" x2="646.15" y2="319.76" xlink:href="#linear-gradient-2"/><linearGradient id="linear-gradient-30" x1="369.23" y1="506.29" x2="369.23" y2="106.59" xlink:href="#linear-gradient-4"/><linearGradient id="linear-gradient-31" x1="530.76" y1="506.29" x2="530.76" y2="266.47" xlink:href="#linear-gradient"/><linearGradient id="linear-gradient-32" x1="599.99" y1="58.63" x2="599.99" y2="47.96" gradientUnits="userSpaceOnUse"><stop offset="0" stop-color="#f5919a"/><stop offset="1" stop-color="#e6c2f2"/></linearGradient><linearGradient id="linear-gradient-33" x1="461.81" y1="298.45" x2="461.81" y2="287.78" xlink:href="#linear-gradient-32"/><linearGradient id="linear-gradient-34" x1="876.91" y1="218.51" x2="876.91" y2="207.84" xlink:href="#linear-gradient-32"/><linearGradient id="linear-gradient-35" x1="738.45" y1="458.33" x2="738.45" y2="447.65" xlink:href="#linear-gradient-32"/><linearGradient id="linear-gradient-36" x1="461.53" y1="724.79" x2="461.53" y2="714.12" xlink:href="#linear-gradient-32"/><linearGradient id="linear-gradient-37" x1="876.91" y1="751.44" x2="876.91" y2="740.77" xlink:href="#linear-gradient-32"/><linearGradient id="linear-gradient-38" x1="92.31" y1="245.16" x2="92.31" y2="234.48" xlink:href="#linear-gradient-32"/></defs><title>Front4Asset 9</title><g id="Layer_2" data-name="Layer 2"><g id="Poster_3" data-name="Poster 3"><polygon class="cls-1" points="876.91 213.17 876.91 266.47 876.91 373.05 876.91 373.05 738.45 452.99 738.45 452.99 738.45 452.99 738.45 826.05 784.61 799.4 784.61 479.64 923.07 399.7 923.07 239.82 923.07 186.53 876.91 213.17"/><polygon class="cls-2" points="923.07 186.53 784.61 106.59 738.45 79.94 553.84 186.53 599.99 213.17 738.45 133.23 876.91 213.17 923.07 186.53"/><polygon class="cls-3" points="738.45 186.53 738.45 133.23 646.15 186.53 646.15 26.65 599.99 53.29 599.99 213.17 599.99 213.17 599.99 266.47 646.15 239.82 646.15 239.82 738.45 186.53"/><polygon class="cls-4" points="599.99 53.29 553.84 26.65 553.84 239.82 599.99 266.47 599.99 53.29"/><polygon class="cls-5" points="553.84 26.65 599.99 0 646.15 26.65 599.99 53.29 553.84 26.65"/><polygon class="cls-6" points="0 506.29 46.15 532.93 46.15 586.23 0 559.58 0 506.29"/><polygon class="cls-7" points="0 506.29 184.61 399.7 230.77 426.35 46.15 532.93 0 506.29"/><polygon class="cls-8" points="46.15 586.23 230.77 479.64 230.77 426.35 46.15 532.93 46.15 586.23"/><polygon class="cls-9" points="876.91 692.81 923.07 666.16 923.07 719.46 876.91 746.1 876.91 692.81"/><polygon class="cls-10" points="0 186.53 184.61 293.11 230.77 266.47 46.15 159.88 0 186.53"/><polygon class="cls-11" points="138.46 106.59 323.07 0 369.23 26.65 184.61 133.23 138.46 106.59"/><polygon class="cls-12" points="461.53 239.82 369.23 186.53 323.07 213.17 415.38 266.47 461.53 293.11 507.69 266.47 461.53 239.82"/><polygon class="cls-13" points="323.07 53.29 323.07 53.29 184.61 133.23 184.61 186.53 323.07 106.59 323.07 213.17 369.23 186.53 369.23 79.94 369.23 26.65 323.07 53.29"/><polygon class="cls-14" points="784.61 586.23 923.07 666.16 876.91 692.81 738.45 612.87 784.61 586.23"/><polygon class="cls-15" points="876.91 746.1 876.91 692.81 738.45 612.87 738.45 452.99 692.3 426.35 599.99 373.05 599.99 426.35 692.3 479.64 692.3 586.23 692.3 639.52 692.3 799.4 738.45 826.05 738.45 666.16 876.91 746.1"/><polygon class="cls-16" points="92.31 239.82 184.61 186.53 184.61 186.53 184.61 186.53 184.61 133.23 184.61 133.23 138.46 106.59 138.46 159.88 138.46 159.88 46.15 213.17 0 186.53 0 239.82 0 239.82 0 239.82 14.57 248.23 184.61 346.41 184.61 293.11 92.31 239.82"/><polygon class="cls-17" points="184.61 293.11 230.77 266.47 230.77 319.76 184.61 346.41 184.61 293.11"/><polygon class="cls-18" points="276.92 346.41 323.07 373.05 323.07 426.35 276.92 399.7 276.92 346.41"/><polygon class="cls-19" points="276.92 346.41 323.07 319.76 369.23 346.41 323.07 373.05 276.92 346.41"/><polygon class="cls-20" points="323.07 373.05 369.23 346.41 369.23 399.7 323.07 426.35 323.07 373.05"/><polygon class="cls-21" points="461.53 586.23 507.69 612.87 507.69 746.11 461.53 719.46 461.53 586.23"/><polygon class="cls-22" points="461.53 586.23 507.69 559.58 553.84 586.23 507.69 612.87 461.53 586.23"/><polygon class="cls-23" points="507.69 612.87 553.84 586.23 553.84 719.46 507.69 746.11 507.69 612.87"/><polygon class="cls-24" points="830.76 506.29 876.91 532.93 876.91 586.23 830.76 559.58 830.76 506.29"/><polygon class="cls-25" points="830.76 506.29 876.91 479.64 923.07 506.29 876.91 532.93 830.76 506.29"/><polygon class="cls-26" points="876.91 532.93 923.07 506.29 923.07 559.58 876.91 586.23 876.91 532.93"/><polygon class="cls-27" points="876.91 266.47 876.91 213.17 738.45 133.23 738.45 186.53 830.76 239.82 830.76 346.4 876.91 373.05 876.91 266.47 876.91 266.47"/><path class="cls-28" d="M415.38,319.76"/><polygon class="cls-29" points="830.76 346.4 738.45 399.7 599.99 319.76 415.38 426.35 461.53 452.99 599.99 373.05 738.45 452.99 784.61 426.35 876.91 373.05 830.76 346.4"/><polygon class="cls-30" points="461.53 506.29 461.53 293.11 415.38 266.47 323.07 213.17 323.07 106.59 276.92 133.23 276.92 239.82 323.07 266.47 323.07 266.47 415.38 319.76 415.38 479.64 461.53 506.29"/><polygon class="cls-31" points="599.99 373.05 507.69 426.35 507.69 266.47 461.53 293.11 461.53 506.29 507.69 479.64 599.99 426.35 599.99 373.05"/><polyline class="cls-32" points="599.99 53.29 599.99 373.05 461.53 293.11"/><polyline class="cls-32" points="923.07 186.53 599.99 373.05 876.91 532.93 876.91 746.1"/><polyline class="cls-32" points="461.53 293.11 323.07 373.05 92.31 239.82"/><line class="cls-32" x1="461.81" y1="293.11" x2="461.53" y2="719.46"/><circle class="cls-33" cx="599.99" cy="53.29" r="5.34"/><circle class="cls-34" cx="461.81" cy="293.11" r="5.34"/><circle class="cls-35" cx="876.91" cy="213.17" r="5.34"/><circle class="cls-36" cx="738.45" cy="452.99" r="5.34"/><circle class="cls-37" cx="461.53" cy="719.46" r="5.34"/><circle class="cls-38" cx="876.91" cy="746.1" r="5.34"/><circle class="cls-39" cx="92.31" cy="239.82" r="5.34"/></g></g></svg>