<svg xmlns="http://www.w3.org/2000/svg" xmlns:xlink="http://www.w3.org/1999/xlink" viewBox="0 0 969.22 346.41"><defs><style>.cls-1{fill:url(#linear-gradient);}.cls-2{fill:url(#linear-gradient-2);}.cls-3{fill:url(#linear-gradient-3);}.cls-4{fill:url(#linear-gradient-4);}.cls-5{fill:url(#linear-gradient-5);}.cls-6{fill:url(#linear-gradient-6);}.cls-7{fill:url(#linear-gradient-7);}.cls-8{fill:url(#linear-gradient-8);}.cls-9{fill:url(#linear-gradient-9);}.cls-10{fill:url(#linear-gradient-10);}.cls-11{fill:url(#linear-gradient-11);}.cls-12{fill:url(#linear-gradient-12);}.cls-13{fill:url(#linear-gradient-13);}.cls-14{fill:url(#linear-gradient-14);}.cls-15{fill:url(#linear-gradient-15);}.cls-16{fill:url(#linear-gradient-16);}.cls-17{fill:url(#linear-gradient-17);}.cls-18{fill:none;stroke-linejoin:round;}.cls-18,.cls-19,.cls-20,.cls-21,.cls-22,.cls-23{stroke:#fff;}.cls-19,.cls-20,.cls-21,.cls-22,.cls-23{stroke-miterlimit:10;}.cls-19{fill:url(#linear-gradient-18);}.cls-20{fill:url(#linear-gradient-19);}.cls-21{fill:url(#linear-gradient-20);}.cls-22{fill:url(#linear-gradient-21);}.cls-23{fill:url(#linear-gradient-22);}</style><linearGradient id="linear-gradient" x1="599.99" y1="53.29" x2="599.99" gradientUnits="userSpaceOnUse"><stop offset="0" stop-color="#f3ccd2"/><stop offset="1" stop-color="#f3e6f1"/></linearGradient><linearGradient id="linear-gradient-2" x1="576.92" y1="266.47" x2="576.92" y2="26.65" gradientUnits="userSpaceOnUse"><stop offset="0" stop-color="#aea4d1"/><stop offset="1" stop-color="#708dd1"/></linearGradient><linearGradient id="linear-gradient-3" x1="692.3" y1="213.17" x2="692.3" y2="79.94" xlink:href="#linear-gradient"/><linearGradient id="linear-gradient-4" x1="692.3" y1="266.47" x2="692.3" y2="26.65" gradientUnits="userSpaceOnUse"><stop offset="0" stop-color="#cbe6f9"/><stop offset="1" stop-color="#a5b5e7"/></linearGradient><linearGradient id="linear-gradient-5" x1="346.15" y1="266.47" x2="346.15" y2="186.53" xlink:href="#linear-gradient-4"/><linearGradient id="linear-gradient-6" x1="276.92" y1="186.53" x2="276.92" y2="26.65" xlink:href="#linear-gradient-4"/><linearGradient id="linear-gradient-7" x1="253.84" y1="213.17" x2="253.84" xlink:href="#linear-gradient"/><linearGradient id="linear-gradient-8" x1="230.77" y1="266.47" x2="230.77" y2="106.59" xlink:href="#linear-gradient-2"/><linearGradient id="linear-gradient-9" x1="23.08" y1="266.47" x2="23.08" y2="186.53" xlink:href="#linear-gradient-2"/><linearGradient id="linear-gradient-10" x1="46.15" y1="213.17" x2="46.15" y2="159.88" xlink:href="#linear-gradient"/><linearGradient id="linear-gradient-11" x1="69.23" y1="266.47" x2="69.23" y2="186.53" xlink:href="#linear-gradient-4"/><linearGradient id="linear-gradient-12" x1="438.46" y1="346.41" x2="438.46" y2="266.47" xlink:href="#linear-gradient-2"/><linearGradient id="linear-gradient-13" x1="461.53" y1="293.11" x2="461.53" y2="239.82" xlink:href="#linear-gradient"/><linearGradient id="linear-gradient-14" x1="484.61" y1="346.41" x2="484.61" y2="266.47" xlink:href="#linear-gradient-4"/><linearGradient id="linear-gradient-15" x1="899.99" y1="133.23" x2="899.99" y2="53.29" xlink:href="#linear-gradient-2"/><linearGradient id="linear-gradient-16" x1="923.07" y1="79.94" x2="923.07" y2="26.65" xlink:href="#linear-gradient"/><linearGradient id="linear-gradient-17" x1="946.14" y1="133.23" x2="946.14" y2="53.29" xlink:href="#linear-gradient-4"/><linearGradient id="linear-gradient-18" x1="599.99" y1="58.63" x2="599.99" y2="47.96" gradientUnits="userSpaceOnUse"><stop offset="0" stop-color="#f5919a"/><stop offset="1" stop-color="#e6c2f2"/></linearGradient><linearGradient id="linear-gradient-19" x1="784.61" y1="111.92" x2="784.61" y2="101.25" xlink:href="#linear-gradient-18"/><linearGradient id="linear-gradient-20" x1="461.53" y1="298.45" x2="461.53" y2="287.78" xlink:href="#linear-gradient-18"/><linearGradient id="linear-gradient-21" x1="323.07" y1="218.51" x2="323.07" y2="207.84" xlink:href="#linear-gradient-18"/><linearGradient id="linear-gradient-22" x1="46.15" y1="218.51" x2="46.15" y2="207.84" xlink:href="#linear-gradient-18"/></defs><title>Front4Asset 16</title><g id="Layer_2" data-name="Layer 2"><g id="Poster_3" data-name="Poster 3"><polygon class="cls-1" points="553.84 26.65 599.99 0 646.15 26.65 599.99 53.29 553.84 26.65"/><polygon class="cls-2" points="553.84 26.65 553.84 239.82 599.99 266.47 599.99 53.29 553.84 26.65"/><polygon class="cls-3" points="599.99 159.88 738.45 79.94 784.61 106.59 599.99 213.17 599.99 159.88"/><polygon class="cls-4" points="784.61 106.59 646.15 186.53 646.15 26.65 599.99 53.29 599.99 213.17 599.99 213.17 599.99 266.47 646.15 239.82 646.15 239.82 784.61 159.88 784.61 106.59"/><polygon class="cls-5" points="323.07 213.17 369.23 186.53 369.23 239.82 323.07 266.47 323.07 213.17"/><polygon class="cls-6" points="323.07 106.59 184.61 186.53 184.61 133.23 369.23 26.65 369.23 79.94 323.07 106.59"/><polygon class="cls-7" points="323.07 53.29 369.23 26.65 323.07 0 276.92 26.65 184.61 79.94 184.61 79.94 138.46 106.59 184.61 133.23 184.61 133.23 323.07 213.17 369.23 186.53 230.77 106.59 323.07 53.29"/><polygon class="cls-8" points="138.46 159.88 323.07 266.47 323.07 213.17 138.46 106.59 138.46 159.88"/><polygon class="cls-9" points="0 186.53 46.15 213.17 46.15 266.47 0 239.82 0 186.53"/><polygon class="cls-10" points="0 186.53 46.15 159.88 92.31 186.53 46.15 213.17 0 186.53"/><polygon class="cls-11" points="46.15 213.17 92.31 186.53 92.31 239.82 46.15 266.47 46.15 213.17"/><polygon class="cls-12" points="415.38 266.47 461.53 293.11 461.53 346.41 415.38 319.76 415.38 266.47"/><polygon class="cls-13" points="415.38 266.47 461.53 239.82 507.69 266.47 461.53 293.11 415.38 266.47"/><polygon class="cls-14" points="461.53 293.11 507.69 266.47 507.69 319.76 461.53 346.41 461.53 293.11"/><polygon class="cls-15" points="876.91 53.29 923.07 79.94 923.07 133.23 876.91 106.59 876.91 53.29"/><polygon class="cls-16" points="876.91 53.29 923.07 26.65 969.22 53.29 923.07 79.94 876.91 53.29"/><polygon class="cls-17" points="923.07 79.94 969.22 53.29 969.22 106.59 923.07 133.23 923.07 79.94"/><polyline class="cls-18" points="599.99 53.29 323.07 213.17 461.53 293.11"/><path class="cls-18" d="M0,186.53"/><line class="cls-18" x1="46.15" y1="213.17" x2="369.23" y2="26.65"/><line class="cls-18" x1="646.15" y1="26.65" x2="784.61" y2="106.59"/><circle class="cls-19" cx="599.99" cy="53.29" r="5.34"/><circle class="cls-20" cx="784.61" cy="106.59" r="5.34"/><circle class="cls-21" cx="461.53" cy="293.11" r="5.34"/><circle class="cls-22" cx="323.07" cy="213.17" r="5.34"/><circle class="cls-23" cx="46.15" cy="213.17" r="5.34"/></g></g></svg>