<svg xmlns="http://www.w3.org/2000/svg" xmlns:xlink="http://www.w3.org/1999/xlink" viewBox="0 0 415.38 506.29"><defs><style>.cls-1{fill:url(#linear-gradient);}.cls-2{fill:url(#linear-gradient-2);}.cls-3{fill:url(#linear-gradient-3);}.cls-4{fill:url(#linear-gradient-4);}.cls-5{fill:url(#linear-gradient-5);}.cls-6{fill:url(#linear-gradient-6);}.cls-7{fill:url(#linear-gradient-7);}.cls-8{fill:url(#linear-gradient-8);}.cls-9{fill:url(#linear-gradient-9);}.cls-10{fill:url(#linear-gradient-10);}.cls-11{fill:url(#linear-gradient-11);}.cls-12{fill:url(#linear-gradient-12);}.cls-13{fill:url(#linear-gradient-13);}</style><linearGradient id="linear-gradient" x1="138.46" y1="186.53" x2="138.46" y2="26.65" gradientUnits="userSpaceOnUse"><stop offset="0" stop-color="#cbe6f9"/><stop offset="1" stop-color="#a5b5e7"/></linearGradient><linearGradient id="linear-gradient-2" x1="115.38" y1="373.05" x2="115.38" y2="239.82" gradientUnits="userSpaceOnUse"><stop offset="0" stop-color="#f3ccd2"/><stop offset="1" stop-color="#f3e6f1"/></linearGradient><linearGradient id="linear-gradient-3" x1="92.31" y1="426.35" x2="92.31" y2="106.59" gradientUnits="userSpaceOnUse"><stop offset="0" stop-color="#aea4d1"/><stop offset="1" stop-color="#708dd1"/></linearGradient><linearGradient id="linear-gradient-4" x1="207.69" y1="426.35" x2="207.69" y2="186.53" xlink:href="#linear-gradient"/><linearGradient id="linear-gradient-5" x1="253.84" y1="186.53" x2="253.84" y2="53.29" xlink:href="#linear-gradient-3"/><linearGradient id="linear-gradient-6" x1="184.61" y1="213.17" x2="184.61" y2="0" xlink:href="#linear-gradient-2"/><linearGradient id="linear-gradient-7" x1="346.15" y1="186.53" x2="346.15" y2="106.59" xlink:href="#linear-gradient"/><linearGradient id="linear-gradient-8" x1="23.08" y1="506.29" x2="23.08" y2="426.35" xlink:href="#linear-gradient-3"/><linearGradient id="linear-gradient-9" x1="46.15" y1="452.99" x2="46.15" y2="399.7" xlink:href="#linear-gradient-2"/><linearGradient id="linear-gradient-10" x1="69.23" y1="506.29" x2="69.23" y2="426.35" xlink:href="#linear-gradient"/><linearGradient id="linear-gradient-11" x1="346.15" y1="373.05" x2="346.15" y2="293.11" xlink:href="#linear-gradient-3"/><linearGradient id="linear-gradient-12" x1="369.23" y1="319.76" x2="369.23" y2="266.46" xlink:href="#linear-gradient-2"/><linearGradient id="linear-gradient-13" x1="392.3" y1="373.05" x2="392.3" y2="293.11" xlink:href="#linear-gradient"/></defs><title>Front4Asset 5</title><g id="Layer_2" data-name="Layer 2"><g id="Poster_1" data-name="Poster 1"><polygon class="cls-1" points="46.15 186.53 230.77 79.94 230.77 26.65 46.15 133.23 46.15 186.53"/><polygon class="cls-2" points="46.15 239.82 230.77 346.41 184.61 373.05 0 266.47 46.15 239.82"/><polygon class="cls-3" points="184.61 266.47 184.61 213.17 138.46 186.53 138.46 186.53 0 106.59 0 159.88 138.46 239.82 138.46 346.41 138.46 346.41 0 266.47 0 319.76 184.61 426.35 184.61 266.47 184.61 266.47"/><polygon class="cls-4" points="230.77 186.53 230.77 399.7 184.61 426.35 184.61 213.17 230.77 186.53"/><polygon class="cls-5" points="323.07 133.23 184.61 53.29 184.61 106.59 323.07 186.53 323.07 133.23"/><polygon class="cls-6" points="323.07 133.23 369.23 106.59 184.61 0 46.15 79.94 46.15 79.94 0 106.59 46.15 133.23 46.15 133.23 184.61 213.17 230.77 186.53 92.31 106.59 184.61 53.29 323.07 133.23"/><polygon class="cls-7" points="323.07 186.53 369.23 159.88 369.23 106.59 323.07 133.23 323.07 186.53"/><polygon class="cls-8" points="0 426.35 46.15 452.99 46.15 506.29 0 479.64 0 426.35"/><polygon class="cls-9" points="0 426.35 46.15 399.7 92.31 426.35 46.15 452.99 0 426.35"/><polygon class="cls-10" points="46.15 452.99 92.31 426.35 92.31 479.64 46.15 506.29 46.15 452.99"/><polygon class="cls-11" points="323.07 293.11 369.23 319.76 369.23 373.05 323.07 346.4 323.07 293.11"/><polygon class="cls-12" points="323.07 293.11 369.23 266.46 415.38 293.11 369.23 319.76 323.07 293.11"/><polygon class="cls-13" points="369.23 319.76 415.38 293.11 415.38 346.4 369.23 373.05 369.23 319.76"/></g></g></svg>