<svg xmlns="http://www.w3.org/2000/svg" xmlns:xlink="http://www.w3.org/1999/xlink" viewBox="0 0 369.48 293.11"><defs><style>.cls-1{fill:url(#linear-gradient);}.cls-2{fill:url(#linear-gradient-2);}.cls-3{fill:url(#linear-gradient-3);}.cls-4{fill:url(#linear-gradient-4);}.cls-5{fill:url(#linear-gradient-5);}.cls-6{fill:url(#linear-gradient-6);}.cls-7{fill:url(#linear-gradient-7);}.cls-10,.cls-11,.cls-12,.cls-8,.cls-9{stroke:#fff;stroke-miterlimit:10;}.cls-8{fill:url(#linear-gradient-8);}.cls-9{fill:url(#linear-gradient-9);}.cls-10{fill:none;}.cls-11{fill:url(#linear-gradient-10);}.cls-12{fill:url(#linear-gradient-11);}</style><linearGradient id="linear-gradient" x1="323.07" y1="159.88" x2="323.07" y2="106.59" gradientUnits="userSpaceOnUse"><stop offset="0" stop-color="#f3ccd2"/><stop offset="1" stop-color="#f3e6f1"/></linearGradient><linearGradient id="linear-gradient-2" x1="346.15" y1="213.17" x2="346.15" y2="133.23" gradientUnits="userSpaceOnUse"><stop offset="0" stop-color="#cbe6f9"/><stop offset="1" stop-color="#a5b5e7"/></linearGradient><linearGradient id="linear-gradient-3" x1="115.38" y1="239.82" x2="115.38" y2="106.59" xlink:href="#linear-gradient"/><linearGradient id="linear-gradient-4" x1="161.54" y1="293.11" x2="161.54" y2="133.23" gradientUnits="userSpaceOnUse"><stop offset="0" stop-color="#aea4d1"/><stop offset="1" stop-color="#708dd1"/></linearGradient><linearGradient id="linear-gradient-5" x1="207.69" y1="106.59" x2="207.69" y2="26.65" xlink:href="#linear-gradient-4"/><linearGradient id="linear-gradient-6" x1="230.77" y1="53.29" x2="230.77" y2="0" xlink:href="#linear-gradient"/><linearGradient id="linear-gradient-7" x1="253.84" y1="106.59" x2="253.84" y2="26.65" xlink:href="#linear-gradient-2"/><linearGradient id="linear-gradient-8" x1="230.77" y1="213.17" x2="230.77" y2="53.29" xlink:href="#linear-gradient"/><linearGradient id="linear-gradient-9" x1="276.92" y1="239.82" x2="276.92" y2="133.23" gradientUnits="userSpaceOnUse"><stop offset="0" stop-color="#f5919a"/><stop offset="1" stop-color="#e6c2f2"/></linearGradient><linearGradient id="linear-gradient-10" x1="230.77" y1="58.63" x2="230.77" y2="47.96" xlink:href="#linear-gradient-9"/><linearGradient id="linear-gradient-11" x1="184.61" y1="245.16" x2="184.61" y2="234.48" xlink:href="#linear-gradient-9"/></defs><title>Front4Asset 12</title><g id="Layer_2" data-name="Layer 2"><g id="Poster_3" data-name="Poster 3"><polygon class="cls-1" points="276.92 133.23 323.07 106.59 369.23 133.23 323.07 159.88 276.92 133.23"/><polygon class="cls-2" points="323.07 159.88 369.23 133.23 369.23 186.53 323.07 213.17 323.07 159.88"/><polygon class="cls-3" points="46.15 106.59 230.77 213.17 184.61 239.82 0 133.24 46.15 106.59"/><polygon class="cls-4" points="323.07 213.17 323.07 159.88 276.92 133.23 276.92 186.53 184.61 239.82 0 133.24 0 186.53 184.61 293.11 230.77 266.47 230.77 266.47 323.07 213.17"/><polygon class="cls-5" points="184.61 26.65 230.77 53.29 230.77 106.59 184.61 79.94 184.61 26.65"/><polygon class="cls-6" points="184.61 26.65 230.77 0 276.92 26.65 230.77 53.29 184.61 26.65"/><polygon class="cls-7" points="230.77 53.29 276.92 26.65 276.92 79.94 230.77 106.59 230.77 53.29"/><line class="cls-8" x1="230.77" y1="53.29" x2="230.77" y2="213.17"/><line class="cls-9" x1="184.61" y1="239.82" x2="369.23" y2="133.23"/><line class="cls-10" x1="184.61" y1="239.82" x2="184.61" y2="293.11"/><circle class="cls-11" cx="230.77" cy="53.29" r="5.34"/><circle class="cls-12" cx="184.61" cy="239.82" r="5.34"/></g></g></svg>